# xmcd CD database file generated by OrangeCD 6.5
#
# Track frame offsets:
#	150
#	11689
#	25144
#	35350
#	49403
#	61063
#	75144
#	88046
#	99827
#	109102
#	120098
#	131078
#	145790
#	157548
#	166348
#	181516
#	196708
#	210257
#	221976
#	236220
#	246725
#
# Disc length: 3516 seconds
#
# Revision: 0
# Processed by: cddbd v1.5.2PL0 Copyright (c) Steve Scherf et al.
# Submitted via: OrangeCD 6.5
#
DISCID=050dba15
DTITLE=Jessi Colter - A Country Star Is Born/Leather And Lace
DYEAR=2020
DGENRE=Country Rock
TTITLE0=Too Many Rivers
TTITLE1=Cry Softly
TTITLE2=I Ain't The One
TTITLE3=It's Not Easy
TTITLE4=He Called Me Baby
TTITLE5=Why You Been Gone So LOng
TTITLE6=If She's Where You Like Livin'
TTITLE7=Healing Hands Of Time
TTITLE8=That's The Chance I Have To Take
TTITLE9=Don't Let Him Go
TTITLE10=It's All Over Now
TTITLE11=You Never Can Tell (C'est La Vie)
TTITLE12=Rainy Seasons
TTITLE13=I'll Be Alright
TTITLE14=Wild Side Of Life/It Wasn't God Who Made Honky Tonk Angels
TTITLE15=Pastels And Harmony
TTITLE16=I Believe You Can
TTITLE17=What's Happened To Blue Eyes
TTITLE18=Storms Never Last
TTITLE19=I Ain't The One
TTITLE20=You're Not My Same Sweet Baby
EXTD=
EXTT0=
EXTT1=
EXTT2=
EXTT3=
EXTT4=
EXTT5=
EXTT6=
EXTT7=
EXTT8=
EXTT9=
EXTT10=
EXTT11=
EXTT12=
EXTT13=
EXTT14=
EXTT15=
EXTT16=
EXTT17=
EXTT18=
EXTT19=
EXTT20=
PLAYORDER=
